<?xml version="1.0" encoding="UTF-8" standalone="no"?>
<svg width="20px" height="29px" viewBox="0 0 20 29" version="1.1" xmlns="http://www.w3.org/2000/svg" xmlns:xlink="http://www.w3.org/1999/xlink" xmlns:sketch="http://www.bohemiancoding.com/sketch/ns">
    <!-- Generator: Sketch 3.2.2 (9983) - http://www.bohemiancoding.com/sketch -->
    <title>Imported Layers 5</title>
    <desc>Created with Sketch.</desc>
    <defs></defs>
    <g id="TACC" stroke="none" stroke-width="1" fill="none" fill-rule="evenodd" sketch:type="MSPage">
        <g id="tACC-Green" sketch:type="MSArtboardGroup" transform="translate(-730.000000, -4861.000000)">
            <g id="footer" sketch:type="MSLayerGroup" transform="translate(-1.000000, 4704.000000)">
                <g id="map" sketch:type="MSShapeGroup">
                    <g id="pin" transform="translate(709.000000, 150.000000)">
                        <g id="Oval-22">
                            <g id="Imported-Layers-5" transform="translate(22.000000, 5.782143)">
                                <path d="M18.19286,0.0162338914 L0.0618348248,10.3436215 L5.14211692,13.2274641 L18.1806368,5.79808257 L31.2361733,13.2106598 L34.0374347,11.6205014 L36.3298769,10.313854 L18.19286,0.0162338914" id="Fill-5" fill="#7ACA9C"></path>
                                <path d="M18.1806368,5.79808257 L5.14211692,13.2274641 L10.2008287,16.0988235 L18.1806368,11.5674481 L26.1549325,16.0949825 L31.2361733,13.2106598 L18.1806368,5.79808257" id="Fill-6" fill="#57BB81"></path>
                                <path d="M18.1806368,11.5674481 L10.2008287,16.0988235 L18.1806368,20.6285184 L18.1806368,20.6215567 L26.1549325,16.0949825 L18.1806368,11.5674481" id="Fill-7" fill="#35AE68"></path>
                                <path d="M31.2361733,18.9800254 L18.1806368,26.3909223 L18.1806368,32.1602878 L36.3174141,21.8650683 L31.2361733,18.9800254" id="Fill-9" fill="#66C182"></path>
                                <path d="M26.1709904,16.1041048 L18.1986121,20.6479633 L18.1806368,26.3909223 L31.2361733,18.9800254 L26.1709904,16.1041048" id="Fill-12" fill="#56BA76"></path>
                                <path d="M26.1549325,16.0949825 L18.1806368,20.6215567 L18.1806368,20.6285184 L18.1988518,20.638841 L18.1986121,20.6479633 L26.1709904,16.1041048 L26.1549325,16.0949825" id="Fill-15" fill="#47B46B"></path>
                                <path d="M0.0618348248,10.3436215 L0.0572810974,16.12475 L5.13852188,13.2293845 L0.0618348248,10.3436215" id="Fill-16" fill="#98D9AF"></path>
                                <path d="M5.13852188,13.2293845 L0.0572810974,16.12475 L5.11263753,18.9884275 L10.1938783,16.1029045 L5.13852188,13.2293845" id="Fill-17" fill="#6CC88E"></path>
                                <path d="M10.1938783,16.1029045 L5.11263753,18.9884275 L18.1806368,26.3909223 L18.1806368,20.6429221 L10.1938783,16.1029045" id="Fill-18" fill="#41B76F"></path>
                                <path d="M0.0618348248,10.3436215 L0.0618348248,10.3436215 L5.13852188,13.2293845 L5.14211692,13.2274641 L0.0618348248,10.3436215" id="Fill-19" fill="#55BF7D"></path>
                                <path d="M5.14211692,13.2274641 L5.13852188,13.2293845 L10.1938783,16.1029045 L10.2008287,16.0988235 L5.14211692,13.2274641" id="Fill-20" fill="#44B870"></path>
                                <path d="M10.2008287,16.0988235 L10.1938783,16.1029045 L18.1806368,20.6429221 L18.1806368,20.6285184 L10.2008287,16.0988235" id="Fill-21" fill="#33B164"></path>
                                <path id="Fill-22" fill="#44B76B" d="M18.1806368,20.6429221 L18.1806368,26.3909223 L18.1986121,20.6479633 L18.1940584,20.650604 L18.1806368,20.6429221"></path>
                                <path id="Fill-23" fill="#3CB464" d="M18.1806368,20.6285184 L18.1806368,20.6429221 L18.1940584,20.650604 L18.1986121,20.6479633 L18.1988518,20.638841 L18.1806368,20.6285184"></path>
                                <path d="M0.0572810974,16.12475 L0.0469752933,21.8650683 L5.11263753,18.9884275 L0.0572810974,16.12475" id="Fill-24" fill="#98D9AF"></path>
                                <path d="M5.11263753,18.9884275 L0.0469752933,21.8650683 L18.1806368,32.1602878 L18.1806368,26.3909223 L5.11263753,18.9884275" id="Fill-25" fill="#52BE7B"></path>
                            </g>
                        </g>
                    </g>
                </g>
            </g>
        </g>
    </g>
</svg>