<?xml version="1.0" encoding="UTF-8" standalone="no"?>
<svg width="41px" height="36px" viewBox="0 0 41 36" version="1.1" xmlns="http://www.w3.org/2000/svg" xmlns:xlink="http://www.w3.org/1999/xlink" xmlns:sketch="http://www.bohemiancoding.com/sketch/ns">
    <!-- Generator: Sketch 3.2.2 (9983) - http://www.bohemiancoding.com/sketch -->
    <title>Imported Layers</title>
    <desc>Created with Sketch.</desc>
    <defs></defs>
    <g id="TACC" stroke="none" stroke-width="1" fill="none" fill-rule="evenodd" sketch:type="MSPage">
        <g id="tACC-Green" sketch:type="MSArtboardGroup" transform="translate(-250.000000, -24.000000)">
            <g id="nav" sketch:type="MSLayerGroup" transform="translate(250.000000, 24.000000)">
                <g id="Imported-Layers" sketch:type="MSShapeGroup">
                    <path d="M20.365561,0.158933333 L0.0692195122,11.6309333 L5.75621951,14.8344 L20.351878,6.5816 L34.9665854,14.8157333 L38.1023902,13.0493333 L40.6686098,11.5978667 L20.365561,0.158933333" id="Fill-5" fill="#7ACA9C"></path>
                    <path d="M20.351878,6.5816 L5.75621951,14.8344 L11.4190732,18.024 L20.351878,12.9904 L29.2785122,18.0197333 L34.9665854,14.8157333 L20.351878,6.5816" id="Fill-6" fill="#57BB81"></path>
                    <path d="M11.4190732,18.024 L20.351878,23.0557333 L29.2785122,18.0197333 L20.351878,12.9904 L11.4190732,18.024 Z" id="Fill-7" fill="#35AE68"></path>
                    <path d="M40.6546585,18.0205333 L40.6546585,18.0205333 L34.9665854,21.2245333 L40.6546585,24.4293333 L40.6546585,18.0205333" id="Fill-8" fill="#ACDDB6"></path>
                    <path d="M34.9665854,21.2245333 L20.351878,29.4568 L20.351878,35.8656 L40.6546585,24.4293333 L34.9665854,21.2245333" id="Fill-9" fill="#66C182"></path>
                    <path d="M40.6546585,11.6114667 L38.1023902,13.0493333 L34.9730244,14.8192 L40.6546585,18.0205333 L40.6546585,11.6114667" id="Fill-10" fill="#ACDDB6"></path>
                    <path d="M34.9730244,14.8192 L29.2964878,18.0298667 L34.9665854,21.2245333 L40.6546585,18.0205333 L34.9730244,14.8192" id="Fill-11" fill="#7FCB95"></path>
                    <path d="M29.2964878,18.0298667 L20.372,23.0773333 L20.351878,29.4568 L34.9665854,21.2245333 L29.2964878,18.0298667" id="Fill-12" fill="#56BA76"></path>
                    <path d="M38.1023902,13.0493333 L34.9665854,14.8157333 L34.9730244,14.8192 L38.1023902,13.0493333" id="Fill-13" fill="#6AC285"></path>
                    <path d="M34.9665854,14.8157333 L29.2785122,18.0197333 L29.2964878,18.0298667 L34.9730244,14.8192 L34.9665854,14.8157333" id="Fill-14" fill="#57BB77"></path>
                    <path d="M29.2785122,18.0197333 L20.351878,23.048 L20.351878,23.0557333 L20.3722683,23.0672 L20.372,23.0773333 L29.2964878,18.0298667 L29.2785122,18.0197333" id="Fill-15" fill="#47B46B"></path>
                    <path d="M0.0692195122,11.6309333 L0.0641219512,18.0528 L5.75219512,14.8365333 L0.0692195122,11.6309333" id="Fill-16" fill="#98D9AF"></path>
                    <path d="M5.75219512,14.8365333 L0.0641219512,18.0528 L5.72321951,21.2338667 L11.4112927,18.0285333 L5.75219512,14.8365333" id="Fill-17" fill="#6CC88E"></path>
                    <path d="M11.4112927,18.0285333 L5.72321951,21.2338667 L20.351878,29.4568 L20.351878,23.0717333 L11.4112927,18.0285333" id="Fill-18" fill="#41B76F"></path>
                    <path d="M0.0692195122,11.6309333 L0.0692195122,11.6309333 L5.75219512,14.8365333 L5.75621951,14.8344 L0.0692195122,11.6309333" id="Fill-19" fill="#55BF7D"></path>
                    <path d="M5.75621951,14.8344 L5.75219512,14.8365333 L11.4112927,18.0285333 L11.4190732,18.024 L5.75621951,14.8344" id="Fill-20" fill="#44B870"></path>
                    <path d="M11.4190732,18.024 L11.4112927,18.0285333 L20.351878,23.0717333 L20.351878,23.0557333 L11.4190732,18.024" id="Fill-21" fill="#33B164"></path>
                    <path id="Fill-22" fill="#44B76B" d="M20.351878,23.0717333 L20.351878,29.4568 L20.372,23.0773333 L20.3669024,23.0802667 L20.351878,23.0717333"></path>
                    <path id="Fill-23" fill="#3CB464" d="M20.351878,23.0557333 L20.351878,23.0717333 L20.3669024,23.0802667 L20.372,23.0773333 L20.3722683,23.0672 L20.351878,23.0557333"></path>
                    <path d="M0.0641219512,18.0528 L0.0525853659,24.4293333 L5.72321951,21.2338667 L0.0641219512,18.0528" id="Fill-24" fill="#98D9AF"></path>
                    <path d="M5.72321951,21.2338667 L0.0525853659,24.4293333 L20.351878,35.8656 L20.351878,29.4568 L5.72321951,21.2338667" id="Fill-25" fill="#52BE7B"></path>
                </g>
            </g>
        </g>
    </g>
</svg>