<?xml version="1.0" encoding="UTF-8" standalone="no"?>
<svg width="77px" height="36px" viewBox="0 0 77 36" version="1.1" xmlns="http://www.w3.org/2000/svg" xmlns:xlink="http://www.w3.org/1999/xlink" xmlns:sketch="http://www.bohemiancoding.com/sketch/ns">
    <!-- Generator: Sketch 3.2.2 (9983) - http://www.bohemiancoding.com/sketch -->
    <title>Imported Layers</title>
    <desc>Created with Sketch.</desc>
    <defs></defs>
    <g id="TACC" stroke="none" stroke-width="1" fill="none" fill-rule="evenodd" sketch:type="MSPage">
        <g id="tACC-Green" sketch:type="MSArtboardGroup" transform="translate(-250.000000, -24.000000)">
            <g id="nav" sketch:type="MSLayerGroup" transform="translate(250.000000, 24.000000)">
                <g id="Imported-Layers" sketch:type="MSShapeGroup">
                    <path d="M46.4178537,22.956 L46.4178537,19.5824 L45.340122,19.5824 L45.340122,18.0965333 L46.4178537,18.0965333 L46.4178537,16.3293333 L48.1419024,16.3293333 L48.1419024,18.0965333 L49.4616341,18.0965333 L49.4616341,19.5824 L48.1419024,19.5824 L48.1419024,22.5008 C48.1419024,22.9024 48.3570732,23.2104 48.7342927,23.2104 C48.9902439,23.2104 49.2325122,23.1165333 49.3269512,23.0229333 L49.6904878,24.308 C49.4348049,24.5354667 48.9768293,24.7229333 48.2629024,24.7229333 C47.0641707,24.7229333 46.4178537,24.1072 46.4178537,22.956" id="Fill-1" fill="#555555"></path>
                    <path d="M56.8697317,24.5624 L56.3173171,23.0496 L52.465439,23.0496 L51.8996098,24.5624 L49.7175854,24.5624 L53.1927805,15.6333333 L55.5899756,15.6333333 L59.0517561,24.5624 L56.8697317,24.5624 L56.8697317,24.5624 Z M54.3912439,17.5341333 L52.9907561,21.3762667 L55.792,21.3762667 L54.3912439,17.5341333 L54.3912439,17.5341333 Z" id="Fill-2" fill="#555555"></path>
                    <path d="M58.9978293,20.1045333 C58.9978293,17.36 61.0856829,15.4861333 63.7793415,15.4861333 C65.7593415,15.4861333 66.903878,16.5568 67.5367805,17.668 L65.8937561,18.4712 C65.5165366,17.7482667 64.708439,17.1728 63.7793415,17.1728 C62.1494634,17.1728 60.9641463,18.4178667 60.9641463,20.1045333 C60.9641463,21.7912 62.1494634,23.0362667 63.7793415,23.0362667 C64.708439,23.0362667 65.5165366,22.4741333 65.8937561,21.7376 L67.5367805,22.5274667 C66.8904634,23.6386667 65.7593415,24.7229333 63.7793415,24.7229333 C61.0856829,24.7229333 58.9978293,22.8488 58.9978293,20.1045333" id="Fill-3" fill="#555555"></path>
                    <path d="M68.2512439,20.1045333 C68.2512439,17.36 70.3388293,15.4861333 73.0324878,15.4861333 C75.0124878,15.4861333 76.1570244,16.5568 76.7901951,17.668 L75.1471707,18.4712 C74.7699512,17.7482667 73.9618537,17.1728 73.0324878,17.1728 C71.402878,17.1728 70.217561,18.4178667 70.217561,20.1045333 C70.217561,21.7912 71.402878,23.0362667 73.0324878,23.0362667 C73.9618537,23.0362667 74.7699512,22.4741333 75.1471707,21.7376 L76.7901951,22.5274667 C76.143878,23.6386667 75.0124878,24.7229333 73.0324878,24.7229333 C70.3388293,24.7229333 68.2512439,22.8488 68.2512439,20.1045333" id="Fill-4" fill="#555555"></path>
                    <path d="M20.365561,0.158933333 L0.0692195122,11.6309333 L5.75621951,14.8344 L20.351878,6.5816 L34.9665854,14.8157333 L38.1023902,13.0493333 L40.6686098,11.5978667 L20.365561,0.158933333" id="Fill-5" fill="#7ACA9C"></path>
                    <path d="M20.351878,6.5816 L5.75621951,14.8344 L11.4190732,18.024 L20.351878,12.9904 L29.2785122,18.0197333 L34.9665854,14.8157333 L20.351878,6.5816" id="Fill-6" fill="#57BB81"></path>
                    <path d="M20.351878,12.9904 L11.4190732,18.024 L20.351878,23.0557333 L20.351878,23.048 L29.2785122,18.0197333 L20.351878,12.9904" id="Fill-7" fill="#35AE68"></path>
                    <path d="M40.6546585,18.0205333 L40.6546585,18.0205333 L34.9665854,21.2245333 L40.6546585,24.4293333 L40.6546585,18.0205333" id="Fill-8" fill="#ACDDB6"></path>
                    <path d="M34.9665854,21.2245333 L20.351878,29.4568 L20.351878,35.8656 L40.6546585,24.4293333 L34.9665854,21.2245333" id="Fill-9" fill="#66C182"></path>
                    <path d="M40.6546585,11.6114667 L38.1023902,13.0493333 L34.9730244,14.8192 L40.6546585,18.0205333 L40.6546585,11.6114667" id="Fill-10" fill="#ACDDB6"></path>
                    <path d="M34.9730244,14.8192 L29.2964878,18.0298667 L34.9665854,21.2245333 L40.6546585,18.0205333 L34.9730244,14.8192" id="Fill-11" fill="#7FCB95"></path>
                    <path d="M29.2964878,18.0298667 L20.372,23.0773333 L20.351878,29.4568 L34.9665854,21.2245333 L29.2964878,18.0298667" id="Fill-12" fill="#56BA76"></path>
                    <path d="M38.1023902,13.0493333 L34.9665854,14.8157333 L34.9730244,14.8192 L38.1023902,13.0493333" id="Fill-13" fill="#6AC285"></path>
                    <path d="M34.9665854,14.8157333 L29.2785122,18.0197333 L29.2964878,18.0298667 L34.9730244,14.8192 L34.9665854,14.8157333" id="Fill-14" fill="#57BB77"></path>
                    <path d="M29.2785122,18.0197333 L20.351878,23.048 L20.351878,23.0557333 L20.3722683,23.0672 L20.372,23.0773333 L29.2964878,18.0298667 L29.2785122,18.0197333" id="Fill-15" fill="#47B46B"></path>
                    <path d="M0.0692195122,11.6309333 L0.0641219512,18.0528 L5.75219512,14.8365333 L0.0692195122,11.6309333" id="Fill-16" fill="#98D9AF"></path>
                    <path d="M5.75219512,14.8365333 L0.0641219512,18.0528 L5.72321951,21.2338667 L11.4112927,18.0285333 L5.75219512,14.8365333" id="Fill-17" fill="#6CC88E"></path>
                    <path d="M11.4112927,18.0285333 L5.72321951,21.2338667 L20.351878,29.4568 L20.351878,23.0717333 L11.4112927,18.0285333" id="Fill-18" fill="#41B76F"></path>
                    <path d="M0.0692195122,11.6309333 L0.0692195122,11.6309333 L5.75219512,14.8365333 L5.75621951,14.8344 L0.0692195122,11.6309333" id="Fill-19" fill="#55BF7D"></path>
                    <path d="M5.75621951,14.8344 L5.75219512,14.8365333 L11.4112927,18.0285333 L11.4190732,18.024 L5.75621951,14.8344" id="Fill-20" fill="#44B870"></path>
                    <path d="M11.4190732,18.024 L11.4112927,18.0285333 L20.351878,23.0717333 L20.351878,23.0557333 L11.4190732,18.024" id="Fill-21" fill="#33B164"></path>
                    <path id="Fill-22" fill="#44B76B" d="M20.351878,23.0717333 L20.351878,29.4568 L20.372,23.0773333 L20.3669024,23.0802667 L20.351878,23.0717333"></path>
                    <path id="Fill-23" fill="#3CB464" d="M20.351878,23.0557333 L20.351878,23.0717333 L20.3669024,23.0802667 L20.372,23.0773333 L20.3722683,23.0672 L20.351878,23.0557333"></path>
                    <path d="M0.0641219512,18.0528 L0.0525853659,24.4293333 L5.72321951,21.2338667 L0.0641219512,18.0528" id="Fill-24" fill="#98D9AF"></path>
                    <path d="M5.72321951,21.2338667 L0.0525853659,24.4293333 L20.351878,35.8656 L20.351878,29.4568 L5.72321951,21.2338667" id="Fill-25" fill="#52BE7B"></path>
                </g>
            </g>
        </g>
    </g>
</svg>