<?xml version="1.0" encoding="UTF-8" standalone="no"?>
<svg width="42px" height="57px" viewBox="0 0 42 57" version="1.1" xmlns="http://www.w3.org/2000/svg" xmlns:xlink="http://www.w3.org/1999/xlink" xmlns:sketch="http://www.bohemiancoding.com/sketch/ns">
    <!-- Generator: Sketch 3.2.2 (9983) - http://www.bohemiancoding.com/sketch -->
    <title>pin</title>
    <desc>Created with Sketch.</desc>
    <defs></defs>
    <g id="TACC" stroke="none" stroke-width="1" fill="none" fill-rule="evenodd" sketch:type="MSPage">
        <g id="tACC-Green" sketch:type="MSArtboardGroup" transform="translate(-714.000000, -4842.000000)">
            <g id="footer" sketch:type="MSLayerGroup" transform="translate(-7.000000, 4705.000000)">
                <g id="map" sketch:type="MSShapeGroup">
                    <g id="pin" transform="translate(720.000000, 137.000000)">
                        <g id="Imported-Layers-5" transform="translate(0.640738, 0.000000)">
                            <g id="Imported-Layers" transform="translate(0.671221, 0.588008)">
                                <path d="M20.4812026,0.168251602 L0.069612561,12.3128555 L5.78890502,15.7041416 L20.467442,6.96747951 L35.1651359,15.6843805 L38.3122712,13.8180863 L40.8995381,12.2778501 L20.4812026,0.168251602" id="Fill-1" fill="#7ACA9C"></path>
                                <path d="M20.467442,6.96747951 L5.78890502,15.7041416 L11.483914,19.080748 L20.467442,13.7520278 L29.4447642,19.0762311 L35.1651359,15.6843805 L20.467442,6.96747951" id="Fill-2" fill="#57BB81"></path>
                                <path d="M20.467442,13.7520278 L11.483914,19.080748 L20.467442,24.4074921 L20.467442,24.3993053 L29.4447642,19.0762311 L20.467442,13.7520278" id="Fill-3" fill="#35AE68"></path>
                                <path d="M40.8855077,19.0767957 L40.8855077,19.0767957 L35.1651359,22.4689287 L40.8855077,25.8616263 L40.8855077,19.0767957" id="Fill-4" fill="#ACDDB6"></path>
                                <path d="M35.1651359,22.4689287 L20.467442,31.1838536 L20.467442,37.9684018 L40.8855077,25.8616263 L35.1651359,22.4689287" id="Fill-5" fill="#66C182"></path>
                                <path d="M40.8855077,12.2922475 L38.3122712,13.8180863 L35.1716115,15.6880504 L40.8855077,19.0767957 L40.8855077,12.2922475" id="Fill-6" fill="#ACDDB6"></path>
                                <path d="M35.1716115,15.6880504 L29.4628419,19.0869586 L35.1651359,22.4689287 L40.8855077,19.0767957 L35.1716115,15.6880504" id="Fill-7" fill="#7FCB95"></path>
                                <path d="M29.4628419,19.0869586 L20.4876782,24.4303585 L20.467442,31.1838536 L35.1651359,22.4689287 L29.4628419,19.0869586" id="Fill-8" fill="#56BA76"></path>
                                <path d="M38.3122712,13.8180863 L35.1651359,15.6843805 L35.1716115,15.6880504 L38.3122712,13.8180863" id="Fill-9" fill="#6AC285"></path>
                                <path d="M35.1651359,15.6843805 L29.4447642,19.0762311 L29.4628419,19.0869586 L35.1716115,15.6880504 L35.1651359,15.6843805" id="Fill-10" fill="#57BB77"></path>
                                <path d="M29.4447642,19.0762311 L20.467442,24.3993053 L20.467442,24.4074921 L20.487948,24.419631 L20.4876782,24.4303585 L29.4628419,19.0869586 L29.4447642,19.0762311" id="Fill-11" fill="#47B46B"></path>
                                <path d="M0.069612561,12.3128555 L0.0644860545,19.1112365 L5.78485778,15.7064 L0.069612561,12.3128555" id="Fill-12" fill="#98D9AF"></path>
                                <path d="M5.78485778,15.7064 L0.0644860545,19.1112365 L5.75571764,22.4788093 L11.4760894,19.0855471 L5.78485778,15.7064" id="Fill-13" fill="#6CC88E"></path>
                                <path d="M11.4760894,19.0855471 L5.75571764,22.4788093 L20.467442,31.1838536 L20.467442,24.4244301 L11.4760894,19.0855471" id="Fill-14" fill="#41B76F"></path>
                                <path d="M0.069612561,12.3128555 L0.069612561,12.3128555 L5.78485778,15.7064 L5.78890502,15.7041416 L0.069612561,12.3128555" id="Fill-15" fill="#55BF7D"></path>
                                <path d="M5.78890502,15.7041416 L5.78485778,15.7064 L11.4760894,19.0855471 L11.483914,19.080748 L5.78890502,15.7041416" id="Fill-16" fill="#44B870"></path>
                                <path d="M11.483914,19.080748 L11.4760894,19.0855471 L20.467442,24.4244301 L20.467442,24.4074921 L11.483914,19.080748" id="Fill-17" fill="#33B164"></path>
                                <path id="Fill-18" fill="#44B76B" d="M20.467442,24.4244301 L20.467442,31.1838536 L20.4876782,24.4303585 L20.4825517,24.4334638 L20.467442,24.4244301"></path>
                                <path id="Fill-19" fill="#3CB464" d="M20.467442,24.4074921 L20.467442,24.4244301 L20.4825517,24.4334638 L20.4876782,24.4303585 L20.487948,24.419631 L20.467442,24.4074921"></path>
                                <path d="M0.0644860545,19.1112365 L0.052883961,25.8616263 L5.75571764,22.4788093 L0.0644860545,19.1112365" id="Fill-20" fill="#98D9AF"></path>
                                <path d="M5.75571764,22.4788093 L0.052883961,25.8616263 L20.467442,37.9684018 L20.467442,31.1838536 L5.75571764,22.4788093" id="Fill-21" fill="#52BE7B"></path>
                            </g>
                        </g>
                        <path d="M21.8692646,38.4509452 L42.3107949,26.388079 L21.8692646,56.2856445 L21.8692646,38.4509452 Z" id="Triangle-5" fill="#26A65B"></path>
                        <path d="M1.43773251,53.8688965 L1.43773251,38.5271519 L21.8692646,26.464617 L1.43773251,56.3618513 L1.43773251,53.8688965 Z" id="Triangle-6" fill="#66C182" transform="translate(11.653499, 41.413234) scale(-1, 1) translate(-11.653499, -41.413234) "></path>
                    </g>
                </g>
            </g>
        </g>
    </g>
</svg>