<svg width="20" height="29" viewBox="0 0 20 29" xmlns="http://www.w3.org/2000/svg"><title>Imported Layers 5</title><desc>Created with Sketch.</desc><g fill="none" fill-rule="evenodd"><g><g><g><g><g><g><path d="M18.193-1.202L.063 9.126l5.08 2.883L18.18 4.58l13.056 7.413 2.8-1.59 2.294-1.307L18.193-1.202" fill="#7ACA9C"/><path d="M18.18 4.58L5.143 12.01l5.06 2.87 7.98-4.53 7.973 4.527 5.08-2.884L18.182 4.58" fill="#57BB81"/><path d="M18.18 10.35l-7.98 4.53 7.98 4.53v-.006l7.975-4.527-7.974-4.528" fill="#35AE68"/><path d="M31.236 17.762l-13.055 7.41v5.77l18.137-10.295-5.08-2.885" fill="#66C182"/><path d="M26.17 14.886L18.2 19.43l-.02 5.743 13.056-7.41-5.065-2.877" fill="#56BA76"/><path d="M26.155 14.877l-7.974 4.527v.007l.02.01v.01l7.97-4.544-.015-.01" fill="#47B46B"/><path d="M.062 9.126l-.005 5.78 5.082-2.895L.06 9.127" fill="#98D9AF"/><path d="M5.14 12.01L.056 14.908l5.056 2.863 5.08-2.885L5.14 12.01" fill="#6CC88E"/><path d="M10.194 14.885l-5.08 2.885 13.067 7.403v-5.748l-7.986-4.54" fill="#41B76F"/><path d="M.062 9.126L5.14 12.01h.002L.062 9.125" fill="#55BF7D"/><path d="M5.142 12.01H5.14l5.054 2.875.007-.004-5.058-2.87" fill="#44B870"/><path d="M10.2 14.88l-.006.005 7.987 4.54v-.014l-7.98-4.53" fill="#33B164"/><path fill="#44B76B" d="M18.18 19.425v5.748l.02-5.743-.006.003-.013-.008"/><path fill="#3CB464" d="M18.18 19.41v.015l.014.008.005-.003v-.01l-.02-.01"/><path d="M.057 14.907l-.01 5.74 5.066-2.877-5.056-2.863" fill="#98D9AF"/><path d="M5.113 17.77L.047 20.647 18.18 30.942v-5.77L5.114 17.77" fill="#52BE7B"/></g></g></g></g></g></g></g></svg>