<svg width="41" height="36" viewBox="0 0 41 36" xmlns="http://www.w3.org/2000/svg"><title>Imported Layers</title><desc>Created with Sketch.</desc><g fill="none" fill-rule="evenodd"><g><g><g><path d="M20.366.16L.07 11.63l5.686 3.204 14.596-8.252 14.615 8.234 3.135-1.767 2.567-1.452L20.365.158" fill="#7ACA9C"/><path d="M20.352 6.582L5.756 14.834l5.663 3.19 8.932-5.034 8.927 5.03 5.687-3.204-14.615-8.234" fill="#57BB81"/><path d="M11.42 18.024l8.932 5.032 8.927-5.036-8.928-5.03-8.933 5.034z" fill="#35AE68"/><path d="M40.655 18.02l-5.688 3.205 5.688 3.204v-6.41" fill="#ACDDB6"/><path d="M34.967 21.225l-14.615 8.232v6.41l20.303-11.438-5.688-3.205" fill="#66C182"/><path d="M40.655 11.61l-2.553 1.44-3.13 1.77 5.683 3.2v-6.41" fill="#ACDDB6"/><path d="M34.973 14.82l-5.677 3.21 5.67 3.195 5.69-3.204-5.683-3.2" fill="#7FCB95"/><path d="M29.296 18.03l-8.924 5.047-.02 6.38 14.615-8.232-5.67-3.195" fill="#56BA76"/><path d="M38.102 13.05l-3.135 1.766.006.003 3.13-1.77" fill="#6AC285"/><path d="M34.967 14.816L29.28 18.02l.016.01 5.677-3.21-.006-.004" fill="#57BB77"/><path d="M29.28 18.02l-8.928 5.028v.008l.02.01v.01l8.924-5.046-.017-.01" fill="#47B46B"/><path d="M.07 11.63l-.006 6.423 5.688-3.216L.07 11.63" fill="#98D9AF"/><path d="M5.752 14.837L.064 18.053l5.66 3.18 5.687-3.204-5.658-3.193" fill="#6CC88E"/><path d="M11.41 18.03l-5.687 3.204 14.63 8.223v-6.385L11.41 18.03" fill="#41B76F"/><path d="M.07 11.63l5.682 3.207.004-.003L.07 11.63" fill="#55BF7D"/><path d="M5.756 14.834l-.004.003 5.66 3.192.007-.006-5.664-3.19" fill="#44B870"/><path d="M11.42 18.024l-.01.005 8.942 5.042v-.016l-8.933-5.032" fill="#33B164"/><path fill="#44B76B" d="M20.352 23.072v6.385l.02-6.38-.005.003-.015-.008"/><path fill="#3CB464" d="M20.352 23.056v.016l.015.008.005-.003v-.01l-.02-.01"/><path d="M.064 18.053l-.01 6.376 5.67-3.196-5.66-3.18" fill="#98D9AF"/><path d="M5.723 21.234L.053 24.43l20.3 11.436v-6.41l-14.63-8.222" fill="#52BE7B"/></g></g></g></g></svg>