<svg width="42" height="57" viewBox="0 0 42 57" xmlns="http://www.w3.org/2000/svg"><title>pin</title><desc>Created with Sketch.</desc><g fill="none" fill-rule="evenodd"><g><g><g><g><g><g><path d="M20.793.756L.383 12.9 6.1 16.293l14.68-8.737 14.697 8.717 3.147-1.866 2.588-1.54L20.792.756" fill="#7ACA9C"/><path d="M20.78 7.555L6.1 16.292l5.696 3.377 8.983-5.33 8.977 5.324 5.72-3.392L20.78 7.555" fill="#57BB81"/><path d="M20.78 14.34l-8.984 5.33 8.983 5.325v-.008l8.977-5.323-8.978-5.324" fill="#35AE68"/><path d="M41.198 19.665l-5.72 3.392 5.72 3.393v-6.785" fill="#ACDDB6"/><path d="M35.477 23.057L20.78 31.772v6.784L41.197 26.45l-5.72-3.393" fill="#66C182"/><path d="M41.198 12.88l-2.574 1.526-3.14 1.87 5.714 3.39V12.88" fill="#ACDDB6"/><path d="M35.484 16.276l-5.71 3.4 5.703 3.38 5.72-3.39-5.713-3.39" fill="#7FCB95"/><path d="M29.775 19.675L20.8 25.018l-.02 6.754 14.697-8.715-5.702-3.382" fill="#56BA76"/><path d="M38.624 14.406l-3.147 1.866.007.004 3.14-1.87" fill="#6AC285"/><path d="M35.477 16.272l-5.72 3.392.018.01 5.71-3.398-.008-.004" fill="#57BB77"/><path d="M29.757 19.664l-8.978 5.323v.008l.02.013v.01l8.975-5.343-.018-.01" fill="#47B46B"/><path d="M.382 12.9l-.006 6.8 5.72-3.406L.383 12.9" fill="#98D9AF"/><path d="M6.097 16.294L.377 19.7l5.69 3.367 5.72-3.393-5.69-3.38" fill="#6CC88E"/><path d="M11.788 19.674l-5.72 3.393 14.71 8.705v-6.76l-8.99-5.338" fill="#41B76F"/><path d="M.382 12.9l5.715 3.394.004-.002-5.718-3.39" fill="#55BF7D"/><path d="M6.1 16.292l-.003.002 5.69 3.38.01-.005L6.1 16.29" fill="#44B870"/><path d="M11.796 19.67l-.008.004 8.99 5.338v-.017l-8.982-5.326" fill="#33B164"/><path fill="#44B76B" d="M20.78 25.012v6.76l.02-6.754-.005.003-.016-.008"/><path fill="#3CB464" d="M20.78 24.995v.017l.015.01.005-.004v-.01l-.02-.013"/><path d="M.376 19.7l-.01 6.75 5.702-3.383L.376 19.7" fill="#98D9AF"/><path d="M6.068 23.067L.365 26.45 20.78 38.556v-6.784L6.067 23.067" fill="#52BE7B"/></g></g><path d="M20.87 38.45L41.31 26.39 20.87 56.286V38.45z" fill="#26A65B"/><path d="M20.868 53.87V38.526L.438 26.465l20.43 29.897V53.87z" fill="#66C182"/></g></g></g></g></g></svg>